<svg xmlns="http://www.w3.org/2000/svg" viewBox="0 0 491.75 396.19"><path d="M491.75,10.14v375.95c0,8.49-11.04,13.18-18.49,7.83l-79.1-57.24c-1.12-.78-2.05-1.74-2.71-2.83v-115.6c0-11.2-12.09-18.18-21.78-12.6l-81.95,47.33c-3.17,1.83-7.11,1.63-10.08-.52l-11.76-8.52c-4.46-3.18-4.46-9.77,0-12.98l20-14.49c12.56-9.07,12.56-27.67,0-36.74l-19.96-14.42c-4.42-3.22-4.42-9.8,0-13.02L473.26,2.31c7.44-5.43,18.49-.66,18.49,7.83Z" fill="#f9a87a"/><path d="M269.34,212.47l-55.32,40c-2.96,2.14-6.9,2.34-10.07.52l-81.96-47.34c-9.65-5.58-21.74,1.4-21.74,12.6v111.8c0,2.97-1.43,5.77-3.84,7.51l-68.01,49.19C16.59,395.31,0,386.94,0,372.41V23.82C0,9.28,16.59.91,28.41,9.48l240.94,174.28c9.78,7.07,9.78,21.64,0,28.72Z" fill="#e85008"/></svg>
